<svg id="ce84b87d-a291-4124-a365-80e805d1eee0" data-name="71ae2aeb-7215-4077-ae96-46c6552e99ad" xmlns="http://www.w3.org/2000/svg" width="1114" height="97" viewBox="0 0 1114 97">
  <title>background-top</title>
  <polygon points="25.97 75.13 0.55 68.69 0.55 0 25.97 75.13" style="fill: #0ba992;opacity: 0.25;isolation: isolate"/>
  <polygon points="90.86 0 60.03 0 76.86 42.71 90.86 0" style="fill: #0ba992;opacity: 0.25;isolation: isolate"/>
  <polygon points="179.84 0 139.63 0 116.63 80.35 179.84 0" style="fill: #0ba992;opacity: 0.25;isolation: isolate"/>
  <polygon points="349.94 4.33 309.73 4.33 286.72 84.68 349.94 4.33" style="fill: #0ba992;opacity: 0.25;isolation: isolate"/>
  <polygon points="382 0 396.72 0.07 338.33 69.76 362.42 0.07 382 0" style="fill: #f57f20;opacity: 0.25;isolation: isolate"/>
  <polygon points="0.55 0 25.65 0 48.3 80.35 0 37.38 0.55 0" style="fill: #f57f20;opacity: 0.25;isolation: isolate"/>
  <polygon points="108.5 97 118.24 0 83.5 0 108.5 97" style="fill: #cd2032;opacity: 0.25;isolation: isolate"/>
  <polygon points="70.7 0 65.62 89.01 20.65 0 70.7 0" style="fill: #cd2032;opacity: 0.25;isolation: isolate"/>
  <polygon points="132.57 0.07 132.57 42.71 109.45 0 132.57 0.07" style="fill: #f57f20;opacity: 0.25;isolation: isolate"/>
  <polygon points="189.86 0.07 182.86 64.69 162.91 0.07 189.86 0.07" style="fill: #cd2032;opacity: 0.25;isolation: isolate"/>
  <polygon points="171.4 0.07 157.55 0 157.55 80.35 171.4 0.07" style="fill: #0ba992;opacity: 0.25;isolation: isolate"/>
  <polygon points="222.83 0.07 219.83 80.35 182.4 0 222.83 0.07" style="fill: #f57f20;opacity: 0.25;isolation: isolate"/>
  <polygon points="264.47 0.07 251.81 80.35 230.82 0.07 264.47 0.07" style="fill: #0ba992;opacity: 0.25;isolation: isolate"/>
  <polygon points="274.79 0.07 274.79 57.7 257.83 0.07 274.79 0.07" style="fill: #cd2032;opacity: 0.25;isolation: isolate"/>
  <polygon points="737.25 0.04 753.71 0.04 753.71 80.31 703.42 0.04 737.25 0.04" style="fill: #0ba992;opacity: 0.25;isolation: isolate"/>
  <polygon points="346.4 0.07 315.43 0.07 354.73 53.37 346.4 0.07" style="fill: #cd2032;opacity: 0.25;isolation: isolate"/>
  <polygon points="432.08 0 401.25 0 418.08 42.71 432.08 0" style="fill: #0ba992;opacity: 0.25;isolation: isolate"/>
  <polygon points="521.06 0 480.85 0 457.84 80.35 521.06 0" style="fill: #0ba992;opacity: 0.25;isolation: isolate"/>
  <polyline points="711.21 69.76 692.81 0.04 712.82 0.04" style="fill: #f57f20;opacity: 0.25;isolation: isolate"/>
  <polygon points="432.08 69.76 459.46 0 424.71 0 432.08 69.76" style="fill: #cd2032;opacity: 0.25;isolation: isolate"/>
  <polygon points="411.92 0 406.83 89.01 361.87 0 411.92 0" style="fill: #cd2032;opacity: 0.25;isolation: isolate"/>
  <polygon points="473.78 0.07 473.78 42.71 450.67 0 473.78 0.07" style="fill: #f57f20;opacity: 0.25;isolation: isolate"/>
  <polygon points="531.07 0.07 524.08 64.69 504.13 0.07 531.07 0.07" style="fill: #cd2032;opacity: 0.25;isolation: isolate"/>
  <polygon points="512.62 0.07 498.76 0 498.76 80.35 512.62 0.07" style="fill: #0ba992;opacity: 0.25;isolation: isolate"/>
  <polygon points="564.05 0.07 561.05 80.35 523.61 0 564.05 0.07" style="fill: #f57f20;opacity: 0.25;isolation: isolate"/>
  <polygon points="315.77 0.07 312.77 80.35 275.33 0 315.77 0.07" style="fill: #f57f20;opacity: 0.25;isolation: isolate"/>
  <polygon points="605.68 0.07 593.02 80.35 572.04 0.07 605.68 0.07" style="fill: #0ba992;opacity: 0.25;isolation: isolate"/>
  <polygon points="616.01 0.07 616.01 57.7 599.05 0.07 616.01 0.07" style="fill: #cd2032;opacity: 0.25;isolation: isolate"/>
  <polygon points="656.5 0.07 672.96 0.07 672.96 80.35 622.67 0.07 656.5 0.07" style="fill: #0ba992;opacity: 0.25;isolation: isolate"/>
  <polygon points="687.62 0.07 656.64 0.07 695.95 53.37 687.62 0.07" style="fill: #cd2032;opacity: 0.25;isolation: isolate"/>
  <polygon points="802.31 0 771.48 0 788.31 42.71 802.31 0" style="fill: #0ba992;opacity: 0.25;isolation: isolate"/>
  <polygon points="891.29 0 851.08 0 828.08 80.35 891.29 0" style="fill: #0ba992;opacity: 0.25;isolation: isolate"/>
  <polygon points="1061.38 4.33 1021.18 4.33 998.17 84.68 1061.38 4.33" style="fill: #0ba992;opacity: 0.25;isolation: isolate"/>
  <polygon points="1093.45 0 1108.17 0.07 1049.78 69.76 1073.86 0.07 1093.45 0" style="fill: #f57f20;opacity: 0.25;isolation: isolate"/>
  <polygon points="819.94 97 829.69 0 794.95 0 819.94 97" style="fill: #cd2032;opacity: 0.25;isolation: isolate"/>
  <polygon points="782.15 0 777.07 89.01 732.1 0 782.15 0" style="fill: #cd2032;opacity: 0.25;isolation: isolate"/>
  <polygon points="844.01 0.07 844.01 42.71 820.9 0 844.01 0.07" style="fill: #f57f20;opacity: 0.25;isolation: isolate"/>
  <polygon points="901.3 0.07 894.31 64.69 874.36 0.07 901.3 0.07" style="fill: #cd2032;opacity: 0.25;isolation: isolate"/>
  <polygon points="882.85 0.07 869 0 869 80.35 882.85 0.07" style="fill: #0ba992;opacity: 0.25;isolation: isolate"/>
  <polygon points="934.28 0.07 931.28 80.35 893.84 0 934.28 0.07" style="fill: #f57f20;opacity: 0.25;isolation: isolate"/>
  <polygon points="975.91 0.07 963.26 80.35 942.27 0.07 975.91 0.07" style="fill: #0ba992;opacity: 0.25;isolation: isolate"/>
  <polygon points="986.24 0.07 986.24 57.7 969.28 0.07 986.24 0.07" style="fill: #cd2032;opacity: 0.25;isolation: isolate"/>
  <polygon points="1057.85 0.07 1026.88 0.07 1066.18 53.37 1057.85 0.07" style="fill: #cd2032;opacity: 0.25;isolation: isolate"/>
  <polygon points="1114 0 1114 89.01 1073.31 0 1114 0" style="fill: #cd2032;opacity: 0.25;isolation: isolate"/>
  <polygon points="1027.22 0.07 1024.22 80.35 986.78 0 1027.22 0.07" style="fill: #f57f20;opacity: 0.25;isolation: isolate"/>
</svg>
