<svg id="71ae2aeb-7215-4077-ae96-46c6552e99ad" data-name="Calque 1" xmlns="http://www.w3.org/2000/svg" width="1114" height="291.22" viewBox="0 0 1114 291.22">
  <title>BACKGROUND</title>
  <polygon points="1.65 291.22 1.65 85 77.97 65.65 1.65 291.22" style="fill: #0ba992;opacity: 0.15"/>
  <polygon points="230.77 163 180.24 291.22 272.79 291.22 230.77 163" style="fill: #0ba992;opacity: 0.15"/>
  <polygon points="350.15 50 419.22 291.22 539.93 291.22 350.15 50" style="fill: #0ba992;opacity: 0.15"/>
  <polygon points="1088.07 291 1015.76 81.78 1114 142.78 1114 291 1088.07 291" style="fill: #f57f20;opacity: 0.15"/>
  <polygon points="0 179 145 50 77 291.22 1.65 291.22 0 179" style="fill: #f57f20;opacity: 0.15"/>
  <polygon points="250.69 291.22 355 291.22 325.73 0 250.69 291.22" style="fill: #cd2032;opacity: 0.15"/>
  <polygon points="62 291.22 197 24 212.27 291.22 62 291.22" style="fill: #cd2032;opacity: 0.15"/>
  <polygon points="328.61 291.22 398 163 398 291 328.61 291.22" style="fill: #f57f20;opacity: 0.2"/>
  <polygon points="489.1 291 549 97 570 291 489.1 291" style="fill: #cd2032;opacity: 0.15"/>
  <polygon points="473 50 473 291.22 514.6 291 473 50" style="fill: #0ba992;opacity: 0.15"/>
  <polygon points="547.6 291.22 660 50 669 291 547.6 291.22" style="fill: #f57f20;opacity: 0.15"/>
  <polygon points="693 291 756 50 794 291 693 291" style="fill: #0ba992;opacity: 0.15"/>
  <polygon points="774.09 291 825 118 825 291 774.09 291" style="fill: #cd2032;opacity: 0.15"/>
  <polygon points="845 291 996 50 996 291 946.58 291 845 291" style="fill: #0ba992;opacity: 0.15"/>
  <polygon points="1065 131 947 291 1040 291 1065 131" style="fill: #cd2032;opacity: 0.15"/>
</svg>
