<svg xmlns="http://www.w3.org/2000/svg" xmlns:xlink="http://www.w3.org/1999/xlink" viewBox="0 0 100 28.63"><defs><style>.cls-1{fill:#0456a8;}.cls-2{fill:url(#linear-gradient);}.cls-3{fill:#fff;}</style><linearGradient id="linear-gradient" x1="5.89" y1="2.81" x2="23.23" y2="25.82" gradientUnits="userSpaceOnUse"><stop offset="0"/><stop offset="0" stop-color="#181c53"/><stop offset="0.31" stop-color="#125e8c"/><stop offset="0.57" stop-color="#1765ad"/><stop offset="1" stop-color="#181c53"/></linearGradient></defs><title>Stickers_Horizontal</title><g id="Layer_2" data-name="Layer 2"><g id="Basic"><g id="JETDEV"><path class="cls-1" d="M30.85,19.8a.46.46,0,0,1-.47-.22,2,2,0,0,1,0-1.21q.09-.19.47-.19h1a3.88,3.88,0,0,0,1.89-.35.94.94,0,0,0,.6-.83V9.54A.59.59,0,0,1,34.59,9a1.39,1.39,0,0,1,.72-.13A1.82,1.82,0,0,1,36,9a.59.59,0,0,1,.25.58V17c0,1.85-1.48,2.78-4.4,2.78Z"/><path class="cls-1" d="M39.87,16.25V17a1,1,0,0,0,.61.8,4.3,4.3,0,0,0,1.93.33h1.83c.24,0,.41.07.47.2a1.82,1.82,0,0,1,0,1.2c-.07.13-.24.2-.47.2H42c-2.94,0-4.39-.88-4.39-2.66V13.8C37.59,12,39,11.14,42,11.14h3.7a6.46,6.46,0,0,1,3.27.64,2.13,2.13,0,0,1,1,2v1.73a.84.84,0,0,1-.16.61,1.2,1.2,0,0,1-.74.16ZM39.54,15H48V13.9a.92.92,0,0,0-.6-.86,4.53,4.53,0,0,0-1.92-.31H42a3.94,3.94,0,0,0-1.89.34,1,1,0,0,0-.6.83Z"/><path class="cls-1" d="M51.57,11.14V9.31a.67.67,0,0,1,.23-.6,1.37,1.37,0,0,1,.72-.13,1.87,1.87,0,0,1,.75.13.62.62,0,0,1,.26.6v1.83h3.22c.23,0,.39.07.46.2a1.89,1.89,0,0,1,0,1.2c-.07.13-.23.2-.46.2H53.52v6.59a.62.62,0,0,1-.26.6,1.43,1.43,0,0,1-.75.13,1.71,1.71,0,0,1-.72-.13.6.6,0,0,1-.23-.6V12.73h-.88c-.23,0-.39-.07-.46-.2a1.89,1.89,0,0,1,0-1.2c.07-.13.23-.2.46-.2Z"/><path class="cls-1" d="M72.4,17c0,1.85-1.51,2.77-4.55,2.77H59.12a.65.65,0,0,1-.72-.51V9.6a.66.66,0,0,1,.52-.7h8.9c3,0,4.55.92,4.55,2.77ZM60.35,18.17h7.21a4,4,0,0,0,1.93-.35A.94.94,0,0,0,70.1,17v-5.3a.94.94,0,0,0-.61-.83,4.42,4.42,0,0,0-1.93-.35H60.35Z"/><path class="cls-1" d="M75.3,16.25V17a1,1,0,0,0,.61.8,4.3,4.3,0,0,0,1.93.33h1.83c.24,0,.41.07.47.2a1.82,1.82,0,0,1,0,1.2c-.07.13-.24.2-.47.2H77.74c-2.94,0-4.39-.88-4.39-2.66V13.8c0-1.78,1.45-2.66,4.39-2.66h3.38a6.43,6.43,0,0,1,3.26.64,2.13,2.13,0,0,1,1,2v1.73a.84.84,0,0,1-.16.61,1.19,1.19,0,0,1-.74.16Zm0-1.28h8.45V13.9a.92.92,0,0,0-.6-.86,4.53,4.53,0,0,0-1.92-.31H77.78a3.94,3.94,0,0,0-1.89.34,1,1,0,0,0-.6.83Z"/><path class="cls-1" d="M92.85,19.74a2.13,2.13,0,0,1-.65-.1,1.05,1.05,0,0,1-.42-.32l-6-7.32a.41.41,0,0,1-.13-.32.46.46,0,0,1,.33-.42,2.3,2.3,0,0,1,.81-.16,2.89,2.89,0,0,1,.52.06.64.64,0,0,1,.42.29l5.14,6.3L98,11.43a.72.72,0,0,1,.42-.26,2.57,2.57,0,0,1,.52-.06,1.5,1.5,0,0,1,.75.16c.23.1.33.22.33.42a.56.56,0,0,1-.13.32l-5.95,7.32a1.05,1.05,0,0,1-.42.32A1.2,1.2,0,0,1,92.85,19.74Z"/></g><ellipse id="Background" class="cls-2" cx="14.56" cy="14.31" rx="14.56" ry="14.31"/><path id="Jet" class="cls-3" d="M10.51,22.53l.13-.11c.1-.09.2-.18.32-.27a.1.1,0,0,0,0-.09v0l.16-2.47v-.77a.12.12,0,0,1,0-.17l1-.83.37-.31a.2.2,0,0,1,.27,0l0,0c.25.28.51.56.75.85l.76.86,1,1.16.46.53s0,0,.06.06l.59-.52c.29-.25.56-.5.84-.74a.25.25,0,0,0,.08-.17c0-.36,0-.72,0-1.08s0-.72,0-1.08,0-.72,0-1.08,0-.74,0-1.11,0-.45,0-.69a.25.25,0,0,1,.06-.19c.3-.36.62-.7.92-1.06l1.18-1.36.91-1L21.71,9.3c.3-.36.62-.7.92-1.06a13.23,13.23,0,0,0,1.21-1.6,2.61,2.61,0,0,0,.25-.52l0-.19c0-.11,0-.16-.14-.17a1.43,1.43,0,0,0-.27,0,4.54,4.54,0,0,0-.81.3A14.89,14.89,0,0,0,21,7.17L19.77,8,17.65,9.33l-3,1.88a.28.28,0,0,1-.22,0c-.45-.08-.91-.14-1.37-.2l-1.54-.25-1.1-.17-1.11-.14h0c-.08,0-.13,0-.19,0L8.54,11l-.8.66,0,0a.86.86,0,0,0,.11.14l1.58,1.77,1.38,1.55a.29.29,0,0,1,.08.16.19.19,0,0,1-.08.16l-.56.48-.76.64,0,0a.28.28,0,0,1-.29.08c-.26,0-.53-.08-.77-.11l-.63-.09-.8-.13-.79-.11-.27,0a.07.07,0,0,0-.08,0l-.5.42,0,0,.48.2,2.41,1h0a.18.18,0,0,1,.11.23.33.33,0,0,1-.06.09l-.45.39-.85.72-.63.53a.19.19,0,0,0-.08.16.38.38,0,0,1-.35.38A.4.4,0,0,1,5.42,20a.38.38,0,0,1,.29-.42.34.34,0,0,1,.18,0,.13.13,0,0,0,.13,0c.23-.19.45-.39.69-.58l1.06-.91A1.65,1.65,0,0,0,7.53,18L4.93,17l-.08,0a.18.18,0,0,1-.11-.23.16.16,0,0,1,.06-.08l.24-.2c.19-.16.39-.31.56-.48a.27.27,0,0,1,.24-.06l.8.13.79.11.64.09.63.09.45.06a.12.12,0,0,0,.08,0l.34-.28.84-.7L10.14,15,8.66,13.39l-1-1.17-.29-.33a.18.18,0,0,1,0-.27l0,0,1.59-1.31.1-.08a.17.17,0,0,1,.14,0l.8.13.72.11.84.13.72.11.84.13.72.11c.19,0,.39,0,.58.09a.27.27,0,0,0,.19,0L16.3,9.86l3.78-2.38,1.5-.94a11,11,0,0,1,1.54-.8,3.68,3.68,0,0,1,.8-.25,1.22,1.22,0,0,1,.34,0,.44.44,0,0,1,.39.48,1.45,1.45,0,0,1-.11.45,5.59,5.59,0,0,1-.5.84,16.19,16.19,0,0,1-1,1.3l-1.88,2.14-1.45,1.64-1.79,2-.13.14a.22.22,0,0,0,0,.09c0,.44,0,.88,0,1.31s0,.7,0,1.06,0,.73,0,1.11,0,.72,0,1.08c0,.19,0,.36,0,.55a.26.26,0,0,1-.08.19l-1.14,1-.47.41-.06.06a.21.21,0,0,1-.29,0s0,0,0,0-.21-.23-.31-.34l-1-1.17-1.17-1.31-.56-.63-.18.16-.95.8a.17.17,0,0,0,0,.11v3.19a.28.28,0,0,1-.1.22c-.26.22-.51.44-.77.64a.18.18,0,0,1-.26,0,.19.19,0,0,1-.06-.13c-.16-.55-.34-1.09-.5-1.64s-.24-.8-.35-1.2a0,0,0,0,0,0,0l-3,2.55a.74.74,0,0,1,0,.27.47.47,0,0,1-.58.31.43.43,0,0,1-.31-.27.45.45,0,0,1,.08-.47A.41.41,0,0,1,6,22.31a.17.17,0,0,0,.14,0L8,20.75l1.34-1.13.11-.08a.19.19,0,0,1,.24.11v0a1.58,1.58,0,0,1,.08.29l.51,1.72.23.79ZM5.84,19.82a.24.24,0,1,0,.25.24A.24.24,0,0,0,5.84,19.82Z"/></g></g></svg>
