<?xml version="1.0" encoding="UTF-8"?>
<svg width="330px" height="60px" viewBox="0 0 330 60" version="1.1" xmlns="http://www.w3.org/2000/svg" xmlns:xlink="http://www.w3.org/1999/xlink">
    <!-- Generator: Sketch 59.1 (86144) - https://sketch.com -->
    <title>logotype_bcd_grandformat</title>
    <desc>Created with Sketch.</desc>
    <defs>
        <polygon id="path-1" points="0 0.1617 17.2746 0.1617 17.2746 35.2527 0 35.2527"></polygon>
        <polygon id="path-3" points="0 59.6477 330 59.6477 330 -0.0003 0 -0.0003"></polygon>
    </defs>
    <g id="logotype_bcd_grandformat" stroke="none" stroke-width="1" fill="none" fill-rule="evenodd">
        <g id="Group-47">
            <g id="Group-3" transform="translate(0.000000, 0.647700)">
                <mask id="mask-2" fill="white">
                    <use xlink:href="#path-1"></use>
                </mask>
                <g id="Clip-2"></g>
                <path d="M13.4966,27.6937 L13.4966,22.8357 C13.4966,21.6847 13.0636,20.6317 12.2006,19.6767 C11.3366,18.7247 10.1666,18.2467 8.6916,18.2467 L3.7786,18.2467 L3.7786,32.0127 L8.6916,32.0127 C10.2036,32.0127 11.3816,31.5897 12.2266,30.7447 C13.0726,29.8987 13.4966,28.8817 13.4966,27.6937 L13.4966,27.6937 Z M12.9556,10.9587 L12.9556,7.7197 C12.9556,6.5687 12.5326,5.5607 11.6876,4.6967 C10.8416,3.8327 9.6626,3.4017 8.1516,3.4017 L3.7786,3.4017 L3.7786,15.5477 L8.1516,15.5477 C9.6626,15.5477 10.8416,15.0807 11.6876,14.1437 C12.5326,13.2087 12.9556,12.1467 12.9556,10.9587 L12.9556,10.9587 Z M-0.0004,0.1617 L8.1516,0.1617 C10.9586,0.1617 13.0916,0.8287 14.5486,2.1597 C16.0066,3.4907 16.7346,5.3447 16.7346,7.7197 L16.7346,10.9587 C16.7346,14.0187 15.4576,15.9797 12.9026,16.8427 C15.8176,17.6347 17.2746,19.6327 17.2746,22.8357 L17.2746,27.6937 C17.2746,30.1057 16.5546,31.9677 15.1156,33.2817 C13.6756,34.5957 11.5336,35.2527 8.6916,35.2527 L-0.0004,35.2527 L-0.0004,0.1617 Z" id="Fill-1" fill="#FCC552" mask="url(#mask-2)"></path>
            </g>
            <polygon id="Fill-4" fill="#FCC552" points="43.187 35.9 27.262 35.9 27.262 0.81 42.647 0.81 42.647 4.049 31.041 4.049 31.041 16.465 40.488 16.465 40.488 19.704 31.041 19.704 31.041 32.661 43.187 32.661"></polygon>
            <polygon id="Fill-6" fill="#FCC552" points="65.3208 0.8097 65.3208 4.0487 58.3018 4.0487 58.3018 35.8997 54.5238 35.8997 54.5238 4.0487 47.5058 4.0487 47.5058 0.8097"></polygon>
            <polygon id="Fill-8" fill="#FCC552" points="86.3745 0.8097 86.3745 4.0487 79.3555 4.0487 79.3555 35.8997 75.5775 35.8997 75.5775 4.0487 68.5595 4.0487 68.5595 0.8097"></polygon>
            <polygon id="Fill-10" fill="#FCC552" points="109.3169 35.9 93.3919 35.9 93.3919 0.81 108.7769 0.81 108.7769 4.049 97.1709 4.049 97.1709 16.465 106.6189 16.465 106.6189 19.704 97.1709 19.704 97.1709 32.661 109.3169 32.661"></polygon>
            <path d="M130.3706,15.9254 L130.3706,8.3674 C130.3706,7.0004 129.9566,5.9384 129.1296,5.1824 C128.3016,4.4264 127.1126,4.0494 125.5666,4.0494 L121.1936,4.0494 L121.1936,20.2444 L125.5666,20.2444 C128.7686,20.2444 130.3706,18.8054 130.3706,15.9254 L130.3706,15.9254 Z M121.1936,35.9004 L117.4146,35.9004 L117.4146,0.8094 L125.5666,0.8094 C128.3736,0.8094 130.5056,1.4764 131.9636,2.8074 C133.4206,4.1384 134.1496,5.9924 134.1496,8.3674 L134.1496,15.9254 C134.1496,19.5964 132.5656,21.9364 129.3986,22.9434 L136.0386,35.9004 L131.8826,35.9004 L125.5666,23.4834 L121.1936,23.4834 L121.1936,35.9004 Z" id="Fill-12" fill="#FCC552"></path>
            <path d="M156.8228,29.1515 L156.8228,26.1825 L160.6008,26.1825 L160.6008,29.1515 C160.6008,31.5635 159.8628,33.4255 158.3878,34.7385 C156.9118,36.0525 154.6988,36.7095 151.7488,36.7095 C148.7968,36.7095 146.5658,36.0525 145.0538,34.7385 C143.5428,33.4255 142.7868,31.5635 142.7868,29.1515 L142.7868,7.5575 C142.7868,5.1475 143.5238,3.2845 144.9998,1.9705 C146.4748,0.6575 148.6888,0.0005 151.6398,0.0005 C154.5908,0.0005 156.8228,0.6575 158.3338,1.9705 C159.8448,3.2845 160.6008,5.1475 160.6008,7.5575 L160.6008,12.6865 L156.8228,12.6865 L156.8228,7.5575 C156.8228,4.6785 155.1128,3.2385 151.6938,3.2385 C148.2748,3.2385 146.5658,4.6785 146.5658,7.5575 L146.5658,29.1515 C146.5658,32.0305 148.2748,33.4705 151.6938,33.4705 C155.1128,33.4705 156.8228,32.0305 156.8228,29.1515" id="Fill-14" fill="#43B7B1"></path>
            <path d="M177.5523,5.0206 L173.1253,24.5626 L181.9793,24.5626 L177.5523,5.0206 Z M174.7443,0.8096 L180.4123,0.8096 L188.3493,35.8996 L184.5703,35.8996 L182.7343,27.8016 L172.4233,27.8016 L170.5873,35.8996 L166.8093,35.8996 L174.7443,0.8096 Z" id="Fill-16" fill="#43B7B1"></path>
            <polygon id="Fill-18" fill="#43B7B1" points="195.9058 35.9 195.9058 0.81 199.6838 0.81 199.6838 32.661 209.5638 32.661 209.5638 35.9"></polygon>
            <polygon id="Fill-20" fill="#43B7B1" points="216.0415 35.9 216.0415 0.81 219.8195 0.81 219.8195 32.661 229.6985 32.661 229.6985 35.9"></polygon>
            <path d="M249.6724,28.3414 L249.6724,8.3674 C249.6724,7.2164 249.2494,6.2084 248.4034,5.3444 C247.5584,4.4804 246.3794,4.0494 244.8674,4.0494 L239.9554,4.0494 L239.9554,32.6604 L244.8674,32.6604 C246.3794,32.6604 247.5584,32.2374 248.4034,31.3924 C249.2494,30.5464 249.6724,29.5294 249.6724,28.3414 M244.8674,35.9004 L236.1764,35.9004 L236.1764,0.8094 L244.8674,0.8094 C247.6754,0.8094 249.8074,1.4764 251.2654,2.8074 C252.7224,4.1384 253.4514,5.9924 253.4514,8.3674 L253.4514,28.3414 C253.4514,30.7534 252.7314,32.6154 251.2914,33.9294 C249.8524,35.2434 247.7104,35.9004 244.8674,35.9004" id="Fill-22" fill="#FFFFFF"></path>
            <path d="M270.9419,5.0206 L266.5149,24.5626 L275.3689,24.5626 L270.9419,5.0206 Z M268.1349,0.8096 L273.8029,0.8096 L281.7389,35.8996 L277.9599,35.8996 L276.1249,27.8016 L265.8139,27.8016 L263.9779,35.8996 L260.1999,35.8996 L268.1349,0.8096 Z" id="Fill-24" fill="#FFFFFF"></path>
            <polygon id="Fill-26" fill="#FFFFFF" points="298.5816 35.9 292.9136 35.9 284.9776 0.81 288.7576 0.81 295.7216 31.743 302.7386 0.81 306.5186 0.81"></polygon>
            <polygon id="Fill-28" fill="#FFFFFF" points="329.9995 35.9 314.0745 35.9 314.0745 0.81 329.4605 0.81 329.4605 4.049 317.8535 4.049 317.8535 16.465 327.3015 16.465 327.3015 19.704 317.8535 19.704 317.8535 32.661 329.9995 32.661"></polygon>
            <path d="M79.0445,52.2848 C79.0445,53.7658 79.4765,54.5078 80.3415,54.5078 C80.9175,54.5078 81.3285,54.2658 81.5755,53.7818 L81.5755,50.6018 C81.3395,50.1078 80.9325,49.8608 80.3565,49.8608 C79.5545,49.8608 79.1185,50.5098 79.0525,51.8058 L79.0445,52.2848 Z M76.4425,52.1228 C76.4425,50.8008 76.7295,49.7588 77.3005,48.9968 C77.8715,48.2358 78.6685,47.8538 79.6925,47.8538 C80.4395,47.8538 81.0665,48.1478 81.5755,48.7338 L81.5755,44.5048 L84.1845,44.5048 L84.1845,56.3598 L81.8465,56.3598 L81.7145,55.4648 C81.1795,56.1648 80.5005,56.5138 79.6775,56.5138 C78.6845,56.5138 77.8975,56.1338 77.3155,55.3718 C76.7335,54.6108 76.4425,53.5268 76.4425,52.1228 L76.4425,52.1228 Z" id="Fill-30" fill="#FFFFFF"></path>
            <mask id="mask-4" fill="white">
                <use xlink:href="#path-3"></use>
            </mask>
            <g id="Clip-33"></g>
            <path d="M90.54,56.3597 L93.149,56.3597 L93.149,48.0087 L90.54,48.0087 L90.54,56.3597 Z M90.385,45.8557 C90.385,45.4847 90.519,45.1827 90.787,44.9447 C91.054,44.7087 91.402,44.5897 91.829,44.5897 C92.256,44.5897 92.603,44.7087 92.871,44.9447 C93.138,45.1827 93.272,45.4847 93.272,45.8557 C93.272,46.2257 93.138,46.5297 92.871,46.7667 C92.603,47.0037 92.256,47.1217 91.829,47.1217 C91.402,47.1217 91.054,47.0037 90.787,46.7667 C90.519,46.5297 90.385,46.2257 90.385,45.8557 L90.385,45.8557 Z" id="Fill-32" fill="#FFFFFF" mask="url(#mask-4)"></path>
            <path d="M101.7954,52.2848 C101.7954,52.9698 101.9234,53.5108 102.1814,53.9098 C102.4394,54.3078 102.7984,54.5078 103.2624,54.5078 C103.8224,54.5078 104.2324,54.3198 104.4884,53.9438 L104.4884,50.4318 C104.2364,50.0528 103.8324,49.8608 103.2764,49.8608 C102.8144,49.8608 102.4514,50.0688 102.1894,50.4828 C101.9264,50.8968 101.7954,51.4978 101.7954,52.2848 L101.7954,52.2848 Z M99.1874,52.1228 C99.1874,51.2788 99.3254,50.5328 99.6034,49.8848 C99.8814,49.2358 100.2794,48.7358 100.7994,48.3838 C101.3194,48.0308 101.9234,47.8538 102.6134,47.8538 C103.4824,47.8538 104.1614,48.1478 104.6504,48.7338 L104.7434,48.0098 L107.1054,48.0098 L107.1054,56.0438 C107.1054,56.7788 106.9344,57.4188 106.5924,57.9618 C106.2494,58.5048 105.7544,58.9218 105.1064,59.2118 C104.4584,59.5028 103.7064,59.6478 102.8534,59.6478 C102.2404,59.6478 101.6484,59.5318 101.0734,59.3008 C100.4994,59.0688 100.0624,58.7678 99.7584,58.3968 L100.8464,56.8688 C101.3294,57.4398 101.9684,57.7258 102.7604,57.7258 C103.9124,57.7258 104.4884,57.1348 104.4884,55.9508 L104.4884,55.6878 C103.9894,56.2388 103.3594,56.5138 102.5984,56.5138 C101.5794,56.5138 100.7564,56.1248 100.1284,55.3458 C99.5004,54.5648 99.1874,53.5218 99.1874,52.2158 L99.1874,52.1228 Z" id="Fill-34" fill="#FFFFFF" mask="url(#mask-4)"></path>
            <path d="M113.461,56.3597 L116.069,56.3597 L116.069,48.0087 L113.461,48.0087 L113.461,56.3597 Z M113.306,45.8557 C113.306,45.4847 113.44,45.1827 113.708,44.9447 C113.975,44.7087 114.322,44.5897 114.75,44.5897 C115.176,44.5897 115.524,44.7087 115.792,44.9447 C116.059,45.1827 116.193,45.4847 116.193,45.8557 C116.193,46.2257 116.059,46.5297 115.792,46.7667 C115.524,47.0037 115.176,47.1217 114.75,47.1217 C114.322,47.1217 113.975,47.0037 113.708,46.7667 C113.44,46.5297 113.306,46.2257 113.306,45.8557 L113.306,45.8557 Z" id="Fill-35" fill="#FFFFFF" mask="url(#mask-4)"></path>
            <path d="M125.4419,45.9332 L125.4419,48.0092 L126.8159,48.0092 L126.8159,49.8152 L125.4419,49.8152 L125.4419,53.6352 C125.4419,53.9502 125.4989,54.1672 125.6119,54.2912 C125.7239,54.4142 125.9489,54.4762 126.2829,54.4762 C126.5409,54.4762 126.7559,54.4612 126.9309,54.4302 L126.9309,56.2902 C126.4629,56.4402 125.9739,56.5142 125.4649,56.5142 C124.5699,56.5142 123.9089,56.3032 123.4809,55.8812 C123.0539,55.4592 122.8399,54.8192 122.8399,53.9592 L122.8399,49.8152 L121.7759,49.8152 L121.7759,48.0092 L122.8399,48.0092 L122.8399,45.9332 L125.4419,45.9332 Z" id="Fill-36" fill="#FFFFFF" mask="url(#mask-4)"></path>
            <path d="M135.6558,54.6617 C135.9798,54.6617 136.2498,54.5927 136.4628,54.4537 C136.6768,54.3137 136.8288,54.1577 136.9218,53.9827 L136.9218,52.6467 L136.1658,52.6467 C135.2598,52.6467 134.8068,53.0547 134.8068,53.8667 C134.8068,54.1037 134.8868,54.2957 135.0468,54.4417 C135.2058,54.5887 135.4088,54.6617 135.6558,54.6617 L135.6558,54.6617 Z M137.2848,56.3597 C137.1918,56.1897 137.1098,55.9407 137.0378,55.6107 C136.5588,56.2137 135.8898,56.5147 135.0308,56.5147 C134.2438,56.5147 133.5748,56.2767 133.0238,55.8007 C132.4728,55.3247 132.1988,54.7257 132.1988,54.0057 C132.1988,53.0997 132.5328,52.4157 133.2018,51.9527 C133.8708,51.4897 134.8438,51.2587 136.1188,51.2587 L136.9218,51.2587 L136.9218,50.8157 C136.9218,50.0457 136.5898,49.6607 135.9268,49.6607 C135.3088,49.6607 134.9998,49.9667 134.9998,50.5757 L132.3988,50.5757 C132.3988,49.7687 132.7428,49.1137 133.4288,48.6097 C134.1158,48.1057 134.9928,47.8537 136.0568,47.8537 C137.1228,47.8537 137.9638,48.1147 138.5818,48.6347 C139.1988,49.1537 139.5148,49.8667 139.5308,50.7717 L139.5308,54.4697 C139.5408,55.2357 139.6588,55.8217 139.8848,56.2287 L139.8848,56.3597 L137.2848,56.3597 Z" id="Fill-37" fill="#FFFFFF" mask="url(#mask-4)"></path>
            <polygon id="Fill-38" fill="#FFFFFF" mask="url(#mask-4)" points="145.848 56.3597 148.456 56.3597 148.456 44.5047 145.848 44.5047"></polygon>
            <path d="M168.6216,52.0875 C168.6216,51.2865 168.5146,50.7155 168.3016,50.3735 C168.0876,50.0315 167.7596,49.8605 167.3166,49.8605 C166.7296,49.8605 166.3236,50.0855 166.0976,50.5315 L166.0976,53.8455 C166.3186,54.2865 166.7296,54.5075 167.3326,54.5075 C167.9446,54.5075 168.3326,54.2095 168.4976,53.6135 C168.5796,53.3205 168.6216,52.8125 168.6216,52.0875 L168.6216,52.0875 Z M171.2296,52.2535 C171.2296,53.6225 170.9466,54.6755 170.3816,55.4105 C169.8146,56.1465 169.0176,56.5145 167.9886,56.5145 C167.1396,56.5145 166.4556,56.1775 165.9346,55.5035 L165.8276,56.3595 L163.4966,56.3595 L163.4966,44.5045 L166.0976,44.5045 L166.0976,48.6805 C166.5806,48.1305 167.2066,47.8545 167.9736,47.8545 C169.0126,47.8545 169.8146,48.2285 170.3816,48.9735 C170.9466,49.7205 171.2296,50.7705 171.2296,52.1225 L171.2296,52.2535 Z" id="Fill-39" fill="#FFFFFF" mask="url(#mask-4)"></path>
            <path d="M182.0923,55.4566 C181.5413,56.1616 180.7983,56.5146 179.8623,56.5146 C178.9463,56.5146 178.2523,56.2476 177.7813,55.7156 C177.3113,55.1836 177.0753,54.4176 177.0753,53.4196 L177.0753,48.0096 L179.6763,48.0096 L179.6763,53.4356 C179.6763,54.1496 180.0243,54.5076 180.7183,54.5076 C181.3153,54.5076 181.7393,54.2946 181.9913,53.8666 L181.9913,48.0096 L184.6083,48.0096 L184.6083,56.3596 L182.1693,56.3596 L182.0923,55.4566 Z" id="Fill-40" fill="#FFFFFF" mask="url(#mask-4)"></path>
            <path d="M190.91,56.3597 L193.518,56.3597 L193.518,48.0087 L190.91,48.0087 L190.91,56.3597 Z M190.755,45.8557 C190.755,45.4847 190.889,45.1827 191.157,44.9447 C191.424,44.7087 191.771,44.5897 192.199,44.5897 C192.626,44.5897 192.973,44.7087 193.241,44.9447 C193.507,45.1827 193.642,45.4847 193.642,45.8557 C193.642,46.2257 193.507,46.5297 193.241,46.7667 C192.973,47.0037 192.626,47.1217 192.199,47.1217 C191.771,47.1217 191.424,47.0037 191.157,46.7667 C190.889,46.5297 190.755,46.2257 190.755,45.8557 L190.755,45.8557 Z" id="Fill-41" fill="#FFFFFF" mask="url(#mask-4)"></path>
            <polygon id="Fill-42" fill="#FFFFFF" mask="url(#mask-4)" points="199.997 56.3597 202.606 56.3597 202.606 44.5047 199.997 44.5047"></polygon>
            <path d="M211.2212,52.2848 C211.2212,53.7658 211.6542,54.5078 212.5182,54.5078 C213.0942,54.5078 213.5062,54.2658 213.7532,53.7818 L213.7532,50.6018 C213.5172,50.1078 213.1102,49.8608 212.5332,49.8608 C211.7312,49.8608 211.2962,50.5098 211.2292,51.8058 L211.2212,52.2848 Z M208.6202,52.1228 C208.6202,50.8008 208.9062,49.7588 209.4772,48.9968 C210.0482,48.2358 210.8462,47.8538 211.8692,47.8538 C212.6162,47.8538 213.2432,48.1478 213.7532,48.7338 L213.7532,44.5048 L216.3622,44.5048 L216.3622,56.3598 L214.0232,56.3598 L213.8922,55.4648 C213.3572,56.1648 212.6772,56.5138 211.8552,56.5138 C210.8622,56.5138 210.0752,56.1338 209.4922,55.3718 C208.9112,54.6108 208.6202,53.5268 208.6202,52.1228 L208.6202,52.1228 Z" id="Fill-43" fill="#FFFFFF" mask="url(#mask-4)"></path>
            <path d="M226.3296,49.8609 C225.5676,49.8609 225.1146,50.3659 224.9716,51.3739 L227.5956,51.3739 L227.5956,51.1729 C227.6046,50.7569 227.4996,50.4339 227.2786,50.2049 C227.0576,49.9759 226.7406,49.8609 226.3296,49.8609 M226.6226,56.5139 C225.3416,56.5139 224.3046,56.1319 223.5126,55.3679 C222.7206,54.6039 222.3236,53.6099 222.3236,52.3849 L222.3236,52.1689 C222.3236,51.3149 222.4816,50.5609 222.7986,49.9079 C223.1146,49.2549 223.5766,48.7489 224.1836,48.3909 C224.7906,48.0339 225.5116,47.8539 226.3446,47.8539 C227.5176,47.8539 228.4436,48.2189 229.1226,48.9469 C229.8026,49.6749 230.1426,50.6899 230.1426,51.9919 L230.1426,53.0029 L224.9716,53.0029 C225.0626,53.4709 225.2676,53.8389 225.5806,54.1059 C225.8936,54.3739 226.3016,54.5069 226.8006,54.5069 C227.6226,54.5069 228.2666,54.2189 228.7286,53.6429 L229.9186,55.0479 C229.5946,55.4959 229.1346,55.8519 228.5406,56.1169 C227.9456,56.3819 227.3066,56.5139 226.6226,56.5139" id="Fill-44" fill="#FFFFFF" mask="url(#mask-4)"></path>
            <path d="M240.981,50.3629 L240.124,50.3009 C239.306,50.3009 238.781,50.5579 238.549,51.0729 L238.549,56.3599 L235.949,56.3599 L235.949,48.0089 L238.387,48.0089 L238.472,49.0819 C238.91,48.2629 239.519,47.8539 240.301,47.8539 C240.58,47.8539 240.822,47.8849 241.027,47.9469 L240.981,50.3629 Z" id="Fill-45" fill="#FFFFFF" mask="url(#mask-4)"></path>
            <path d="M251.0327,54.0133 C251.0327,53.7923 250.9177,53.6153 250.6847,53.4813 C250.4537,53.3473 250.0137,53.2083 249.3657,53.0643 C248.7177,52.9203 248.1817,52.7313 247.7607,52.4963 C247.3387,52.2633 247.0167,51.9793 246.7957,51.6443 C246.5747,51.3103 246.4637,50.9263 246.4637,50.4933 C246.4637,49.7283 246.7797,49.0963 247.4127,48.5993 C248.0467,48.1033 248.8747,47.8543 249.8977,47.8543 C250.9997,47.8543 251.8847,48.1043 252.5537,48.6033 C253.2217,49.1033 253.5557,49.7583 253.5557,50.5713 L250.9477,50.5713 C250.9477,49.9033 250.5957,49.5683 249.8897,49.5683 C249.6177,49.5683 249.3887,49.6443 249.2037,49.7953 C249.0177,49.9483 248.9267,50.1373 248.9267,50.3633 C248.9267,50.5943 249.0387,50.7833 249.2647,50.9263 C249.4917,51.0713 249.8527,51.1893 250.3497,51.2823 C250.8457,51.3733 251.2827,51.4853 251.6577,51.6133 C252.9137,52.0453 253.5417,52.8203 253.5417,53.9363 C253.5417,54.6983 253.2027,55.3183 252.5257,55.7963 C251.8497,56.2753 250.9737,56.5143 249.8977,56.5143 C249.1827,56.5143 248.5447,56.3853 247.9837,56.1283 C247.4237,55.8713 246.9857,55.5213 246.6727,55.0783 C246.3587,54.6363 246.2017,54.1703 246.2017,53.6813 L248.6327,53.6813 C248.6427,54.0683 248.7707,54.3493 249.0177,54.5273 C249.2647,54.7043 249.5817,54.7923 249.9677,54.7923 C250.3227,54.7923 250.5897,54.7213 250.7657,54.5763 C250.9437,54.4333 251.0327,54.2443 251.0327,54.0133" id="Fill-46" fill="#FFFFFF" mask="url(#mask-4)"></path>
        </g>
    </g>
</svg>