<svg id="Calque_1" data-name="Calque 1" xmlns="http://www.w3.org/2000/svg" viewBox="0 0 20.9 17"><path d="M20.92,2a8.75,8.75,0,0,1-2.46.69A4.32,4.32,0,0,0,20.34.31a8.59,8.59,0,0,1-2.72,1.05A4.21,4.21,0,0,0,14.46,0a4.28,4.28,0,0,0-4.27,4.29h0a4.79,4.79,0,0,0,.11,1A12.19,12.19,0,0,1,1.46.79,4.27,4.27,0,0,0,2.79,6.5,4.28,4.28,0,0,1,.84,6h0a4.29,4.29,0,0,0,3.44,4.21,4.2,4.2,0,0,1-1.93.07,4.28,4.28,0,0,0,4,3A8.54,8.54,0,0,1,1,15.12a8.39,8.39,0,0,1-1-.06A12.18,12.18,0,0,0,18.79,4.93v-.7A8.53,8.53,0,0,0,20.92,2Z" transform="translate(-0.02 0)"/></svg>