<svg id="34af2311-d193-47bf-8d11-2495c56101e0" data-name="Calque 1" xmlns="http://www.w3.org/2000/svg" width="132.1" height="124" viewBox="0 0 132.1 124">
  <title>webstories-logo</title>
  <g>
    <polygon points="66.05 122.13 117.77 71.66 95.34 33.02 66.05 122.13" style="fill: #f57f20;opacity: 0.7000000000000001"/>
    <polygon points="78.51 66.05 84.12 3.12 123.38 64.18 78.51 66.05" style="fill: #cd2032;opacity: 0.5"/>
    <polygon points="130.23 53.59 132.1 30.53 117.77 8.1 130.23 53.59" style="fill: #f57f20;opacity: 0.7000000000000001"/>
    <polygon points="85.37 1.25 117.77 3.12 127.12 57.33 85.37 1.25" style="fill: #0ba992;opacity: 0.5"/>
    <polygon points="80.38 3.12 57.95 18.69 72.91 89.11 80.38 3.12" style="fill: #f57f20;opacity: 0.7000000000000001"/>
    <polygon points="71.03 17.45 48.6 3.12 27.42 83.5 71.03 17.45" style="fill: #cd2032;opacity: 0.5"/>
    <polygon points="28.66 87.24 67.3 124 83.5 22.43 28.66 87.24" style="fill: #0ba992;opacity: 0.5"/>
    <polygon points="46.11 2.95 24.3 0 47.1 56.04 46.11 2.95" style="fill: #0ba992;opacity: 0.5"/>
    <polygon points="23.05 3.12 0 23.68 38.01 57.33 23.05 3.12" style="fill: #cd2032;opacity: 0.5"/>
    <polygon points="0 29.29 19.94 77.89 38.75 51.87 0 29.29" style="fill: #f57f20;opacity: 0.7000000000000001"/>
  </g>
</svg>
